<?xml version="1.0" encoding="UTF-8"?>
<svg viewBox="0 0 128 128" xmlns="http://www.w3.org/2000/svg" aria-hidden="true">
  <circle cx="64" cy="64" fill="#6b9fd4" r="60"/>
  <circle cx="64" cy="64" fill="#4a7eb8" opacity=".35" r="48"/>
  <path d="m64 14a32 32 0 0 1 32 32v41a6 6 0 0 1 -6 6h-52a6 6 0 0 1 -6-6v-41a32 32 0 0 1 32-32z" fill="#5c4a3a"/>
  <path d="m62.73 22h2.54a23.73 23.73 0 0 1 23.73 23.73v42.82a4.45 4.45 0 0 1 -4.45 4.45h-41.1a4.45 4.45 0 0 1 -4.45-4.45v-42.82a23.73 23.73 0 0 1 23.73-23.73z" fill="#393c54" opacity=".35"/>
  <circle cx="89" cy="65" fill="#e8b89a" r="7"/>
  <path d="m64 124a59.67 59.67 0 0 0 34.69-11.06l-3.32-9.3a10 10 0 0 0 -9.37-6.64h-43.95a10 10 0 0 0 -9.42 6.64l-3.32 9.3a59.67 59.67 0 0 0 34.69 11.06z" fill="#4bc190"/>
  <path d="m45 110 5.55 2.92-2.55 8.92a60.14 60.14 0 0 0 9 1.74v-27.08l-12.38 10.25a2 2 0 0 0 .38 3.25z" fill="#356cb6" opacity=".3"/>
  <path d="m71 96.5v27.09a60.14 60.14 0 0 0 9-1.74l-2.54-8.93 5.54-2.92a2 2 0 0 0 .41-3.25z" fill="#356cb6" opacity=".3"/>
  <path d="m57 123.68a58.54 58.54 0 0 0 14 0v-25.68h-14z" fill="#fff"/>
  <path d="m64 88.75v9.75" fill="none" stroke="#e8b89a" stroke-linecap="round" stroke-linejoin="round" stroke-width="14"/>
  <circle cx="39" cy="65" fill="#e8b89a" r="7"/>
  <path d="m64 91a25 25 0 0 1 -25-25v-16.48a25 25 0 1 1 50 0v16.48a25 25 0 0 1 -25 25z" fill="#f0cdb8"/>
  <path d="m38 52c2-14 16-24 26-24s24 10 26 24c-8-6-18-9-26-9s-18 3-26 9z" fill="#3d3429"/>
  <path d="m40 54c0-12 10-20 24-20s24 8 24 20c-6-4-14-6-24-6s-18 2-24 6z" fill="#4a4035"/>
  <circle cx="76" cy="62.28" fill="#515570" r="3"/>
  <circle cx="52" cy="62.28" fill="#515570" r="3"/>
  <path d="m58 68h12" fill="none" stroke="#c9a088" stroke-linecap="round" stroke-width="2" opacity=".5"/>
  <path d="m64 78c2 0 3 1 3 2s-1 2-3 2-3-1-3-2 1-2 3-2z" fill="#c97a6a" opacity=".35"/>
</svg>
