<svg xmlns="http://www.w3.org/2000/svg" width="300" height="250" viewBox="0 0 1080 900">
  <g fill-opacity="0.5">
    <polygon fill="#444" points="90 150 0 300 180 300"/>
    <polygon points="90 150 180 0 0 0"/>
    <polygon fill="#AAA" points="270 150 360 0 180 0"/>
    <polygon fill="#DDD" points="450 150 360 300 540 300"/>
    <polygon fill="#999" points="450 150 540 0 360 0"/>
    <polygon points="630 150 540 300 720 300"/>
    <polygon fill="#DDD" points="630 150 720 0 540 0"/>
    <polygon fill="#444" points="810 150 720 300 900 300"/>
    <polygon fill="#FFF" points="810 150 900 0 720 0"/>
    <polygon fill="#DDD" points="990 150 900 300 1080 300"/>
    <polygon fill="#444" points="990 150 1080 0 900 0"/>
    <polygon fill="#DDD" points="90 450 0 600 180 600"/>
    <polygon points="90 450 180 300 0 300"/>
    <polygon fill="#666" points="270 450 180 600 360 600"/>
    <polygon fill="#AAA" points="270 450 360 300 180 300"/>
    <polygon fill="#DDD" points="450 450 360 600 540 600"/>
    <polygon fill="#999" points="450 450 540 300 360 300"/>
    <polygon fill="#999" points="630 450 540 600 720 600"/>
    <polygon fill="#FFF" points="630 450 720 300 540 300"/>
    <polygon points="810 450 720 600 900 600"/>
    <polygon fill="#DDD" points="810 450 900 300 720 300"/>
    <polygon fill="#AAA" points="990 450 900 600 1080 600"/>
    <polygon fill="#444" points="990 450 1080 300 900 300"/>
    <polygon fill="#222" points="90 750 0 900 180 900"/>
    <polygon points="270 750 180 900 360 900"/>
    <polygon fill="#DDD" points="270 750 360 600 180 600"/>
    <polygon points="450 750 540 600 360 600"/>
    <polygon points="630 750 540 900 720 900"/>
    <polygon fill="#444" points="630 750 720 600 540 600"/>
    <polygon fill="#AAA" points="810 750 720 900 900 900"/>
    <polygon fill="#666" points="810 750 900 600 720 600"/>
    <polygon fill="#999" points="990 750 900 900 1080 900"/>
  </g>
</svg>
